HIERARCHY
ROOT Hips
{
  OFFSET 0 0 0
  CHANNELS 6 Xposition Yposition Zposition Zrotation Xrotation Yrotation
  JOINT LeftHip
  {
    OFFSET 3.43 2.84217e-014 0
    CHANNELS 3 Zrotation Xrotation Yrotation
    JOINT LeftKnee
    {
      OFFSET -2.70775e-013 -18.47 3.9528e-014
      CHANNELS 3 Zrotation Xrotation Yrotation
      JOINT LeftAnkle
      {
        OFFSET -3.03027e-012 -17.95 -1.10714e-012
        CHANNELS 3 Zrotation Xrotation Yrotation
        End Site
        {
          OFFSET 0 -3.12 0
        }
      }
    }
  }
  JOINT RightHip
  {
    OFFSET -3.43 2.13163e-014 -1.42109e-014
    CHANNELS 3 Zrotation Xrotation Yrotation
    JOINT RightKnee
    {
      OFFSET -1.63329e-013 -18.47 -2.95696e-013
      CHANNELS 3 Zrotation Xrotation Yrotation
      JOINT RightAnkle
      {
        OFFSET 2.37838e-012 -17.95 -2.37092e-012
        CHANNELS 3 Zrotation Xrotation Yrotation
        End Site
        {
          OFFSET 0 -3.12 0
        }
      }
    }
  }
  JOINT Chest
  {
    OFFSET -2.13163e-014 4.57 -3.86506e-013
    CHANNELS 3 Zrotation Xrotation Yrotation
    JOINT Chest2
    {
      OFFSET -7.10543e-015 6.57 -1.42109e-014
      CHANNELS 3 Zrotation Xrotation Yrotation
      JOINT LeftCollar
      {
        OFFSET 1.06 4.19 1.76
        CHANNELS 3 Zrotation Xrotation Yrotation
        JOINT LeftShoulder
        {
          OFFSET 5.81 -1.42109e-014 4.05436e-013
          CHANNELS 3 Zrotation Xrotation Yrotation
          JOINT LeftElbow
          {
            OFFSET 3.55534e-013 -12.08 -1.14749e-012
            CHANNELS 3 Zrotation Xrotation Yrotation
            JOINT LeftWrist
            {
              OFFSET -8.34522e-012 -9.82 -1.61369e-011
              CHANNELS 3 Zrotation Xrotation Yrotation
              End Site
              {
                OFFSET 0 -7.37 0
              }
            }
          }
        }
      }
      JOINT RightCollar
      {
        OFFSET -1.06 4.19 1.76
        CHANNELS 3 Zrotation Xrotation Yrotation
        JOINT RightShoulder
        {
          OFFSET -6.06 -7.10543e-015 4.78178e-014
          CHANNELS 3 Zrotation Xrotation Yrotation
          JOINT RightElbow
          {
            OFFSET -3.95618e-013 -11.08 -5.6565e-013
            CHANNELS 3 Zrotation Xrotation Yrotation
            JOINT RightWrist
            {
              OFFSET -5.21178e-012 -9.82 -5.51333e-012
              CHANNELS 3 Zrotation Xrotation Yrotation
              End Site
              {
                OFFSET 0 -7.14001 0
              }
            }
          }
        }
      }
      JOINT Neck
      {
        OFFSET -1.42109e-014 4.05 2.84217e-014
        CHANNELS 3 Zrotation Xrotation Yrotation
        JOINT Head
        {
          OFFSET 2.77901e-014 5.19 9.6792e-015
          CHANNELS 3 Zrotation Xrotation Yrotation
          End Site
          {
            OFFSET 0 4.14001 0
          }
        }
      }
    }
  }
}
MOTION
Frames:	15
Frame Time:	0.0333333
-5.29651 38.7602 -11.0347 -3.34539 5.95495 -131.693 -2.39981 -23.0445 -3.07135 15.5693 69.7708 -4.75239 3.53613 -5.24096 0.161892 7.66483 -3.95333 6.76626 0.43687 26.5536 -11.4892 -1.48985 -16.1281 -0.211095 0.967845 2.07263 0.151023 1.2046 3.31511 0.214844 5.48091 0.00969554 2.30993 13.0186 -3.18804 8.45729 -4.90614 -9.49409 -35.0139 4.61478 2.61125 -0.105234 -2.28668 0.18159 -4.38945 -21.1005 -6.68349 -1.11987 9.96758 -20.1875 33.8114 -6.09942 0.161868 0.00862401 0.452474 -3.26341 -2.04114 0.948552 -2.43119 -2.71522 
-6.40441 38.8563 -12.0241 -3.6237 5.44591 -134.403 -2.79583 -25.4674 -3.08714 8.81884 61.6259 4.00594 3.94283 -6.52719 0.224917 6.34076 -0.846315 6.0786 0.516456 24.7123 -8.63171 -2.21917 -17.4356 -0.340327 0.932645 2.22734 1.25754 1.10453 3.52603 1.68119 5.02815 0.000648603 2.63937 13.5862 -0.549306 9.40355 -4.72861 -9.73365 -34.3481 4.9934 2.89943 -0.126452 -2.89803 0.211457 -4.03956 -21.5184 -9.78669 -0.601887 10.2521 -21.2411 33.7604 -6.65986 0.149968 0.00872569 -0.360921 -3.34779 -1.7147 0.779879 -2.59713 -2.77296 
-7.50052 38.8908 -12.994 -3.64246 5.16144 -136.887 -2.17573 -26.0863 -2.68664 4.36367 49.4438 9.7606 3.56167 -6.62321 0.206155 5.28271 2.24829 5.63606 0.556798 22.6203 -6.04242 -2.77043 -18.5188 -0.451745 1.08608 2.397 2.17244 1.20329 3.74887 2.87236 4.57635 -0.0108153 2.92476 13.9768 1.8389 10.2789 -4.48944 -9.62054 -33.6614 5.26012 3.19335 -0.146726 -3.41797 0.234024 -3.73381 -21.9893 -12.8112 -0.189698 10.4382 -21.9508 33.6503 -7.24075 0.157463 0.00996298 -1.12781 -3.49978 -1.37566 0.591701 -2.91762 -2.72986 
-8.60489 38.8466 -13.9812 -3.34909 5.0692 -138.969 -0.7551 -24.3355 -2.02707 1.39264 32.9572 13.0529 2.60929 -5.52844 0.126004 4.54818 5.37477 5.41032 0.577923 20.3282 -3.85175 -3.12725 -19.5203 -0.538059 1.39695 2.51836 2.86397 1.49161 3.90586 3.74366 4.15627 -0.0229378 3.1145 14.1714 3.92631 11.1254 -4.13093 -8.97816 -32.9962 5.37654 3.49137 -0.163983 -3.84204 0.250581 -3.46372 -22.4413 -15.4249 0.133819 10.597 -22.5254 33.6071 -7.80466 0.132941 0.00906845 -1.75079 -3.65486 -1.06863 0.414295 -3.36046 -2.61611 
-9.78234 38.5873 -15.0666 -2.60462 5.35911 -140.718 1.21372 -20.737 -1.51575 -0.408672 14.6596 13.7027 0.712923 -4.07684 0.0253748 4.44819 7.98001 5.30601 0.557644 19.5861 -2.14849 -3.2397 -21.5584 -0.616944 2.09929 2.49846 3.43423 1.86951 3.90668 4.32331 3.83678 -0.0329139 3.24144 14.2762 5.87649 11.9957 -3.65994 -7.91592 -32.4157 5.3036 3.77526 -0.174917 -4.21336 0.263396 -3.23269 -22.8129 -17.2983 0.375584 10.773 -23.1334 33.7534 -8.30827 0.0467094 0.00339253 -2.1522 -3.82048 -0.815501 0.294283 -3.79452 -2.45776 
-11.1045 38.0774 -16.3237 -1.42991 6.13047 -142.259 2.53006 -21.584 -1.55033 -0.173535 9.55255 12.0479 -3.16807 -7.7215 -0.213851 4.78121 10.5615 5.02835 0.841066 20.127 -0.385845 -3.56211 -24.7385 -0.781417 3.33233 2.26937 4.04228 2.14651 3.70284 4.63866 3.70248 -0.0382145 3.37383 14.4043 7.86946 12.8936 -3.13434 -6.72649 -31.9944 5.01272 4.00797 -0.175509 -4.55758 0.273687 -3.08311 -22.9945 -18.2017 0.558643 10.9746 -23.807 34.15 -8.71511 -0.0938223 -0.00714932 -2.28375 -4.04499 -0.641024 0.292365 -4.09167 -2.29713 
-12.4423 37.8644 -17.5747 -1.38002 6.06815 -142.768 1.56567 -22.0709 -3.01718 0.951872 9.53704 10.6216 -4.95447 -10.402 -0.451256 3.7954 14.047 4.27951 1.29704 18.7372 1.41429 -4.18017 -25.1585 -0.933184 3.26847 2.22719 4.1226 2.12015 3.6227 4.69423 3.78439 -0.037491 3.53291 14.1406 9.20521 13.6691 -2.58341 -5.71499 -31.4718 4.51978 4.15667 -0.164106 -4.82127 0.280792 -3.07744 -22.5347 -18.1928 0.844415 11.1621 -24.4217 34.7158 -8.98501 -0.242554 -0.0190575 -2.14522 -4.34275 -0.587514 0.461386 -4.2013 -2.20918 
-13.8627 37.7504 -18.8881 -2.12179 5.53454 -142.396 -1.08723 -24.3624 -4.82761 1.24476 17.4523 10.5151 0.439148 -11.7828 0.0453152 2.30138 18.1031 3.38817 1.41631 16.7695 3.02089 -4.66643 -24.065 -0.995171 2.48619 2.20678 3.85257 1.60211 3.5291 4.51497 4.01064 -0.0316195 3.66096 13.9356 10.1037 14.2848 -2.13018 -5.06249 -31.009 3.90084 4.21768 -0.143695 -4.88355 0.282298 -3.24189 -21.7093 -17.2229 1.12475 11.3298 -24.7152 35.3917 -9.04507 -0.334086 -0.0264254 -1.79358 -4.65435 -0.693107 0.811722 -4.15917 -2.27178 
-15.3363 37.7601 -20.2263 -3.38934 4.60204 -141.404 -3.96579 -23.3805 -6.71951 1.35815 19.7104 12.3164 1.70945 -3.50542 0.0523132 0.454977 21.42 2.18604 1.54707 16.422 4.46252 -4.23901 -21.5107 -0.805567 1.28407 2.11894 3.39217 0.595482 3.34261 4.14808 4.23747 -0.0244458 3.67234 13.9559 10.4724 14.6408 -1.85814 -4.80533 -30.6324 3.28255 4.2148 -0.120823 -4.65429 0.274961 -3.52331 -20.7387 -15.4849 1.31914 11.4432 -24.3885 36.0512 -8.77375 -0.320633 -0.0245976 -1.32807 -4.87475 -0.94812 1.28435 -4.05196 -2.49636 
-16.7702 37.9286 -21.4868 -4.97019 3.2115 -140.159 -6.97494 -20.8228 -8.54439 1.32039 19.45 12.6096 1.76828 1.15037 -0.0177535 -1.98352 20.38 0.651518 1.74199 23.6666 5.43081 0.964893 -18.3697 0.15602 -0.270163 2.01664 2.87418 -0.683742 3.1175 3.64444 4.34456 -0.0202341 3.53641 14.122 10.0607 14.6363 -1.81188 -4.88807 -30.3275 2.819 4.17366 -0.10274 -4.17729 0.258259 -3.80585 -19.8275 -13.4597 1.3866 11.4428 -23.2251 36.5638 -8.03496 -0.206066 -0.0144727 -0.858179 -4.93049 -1.27337 1.75758 -3.96266 -2.78681 
-18.1597 38.1037 -22.7015 -6.28254 1.84638 -139.02 -9.35158 -18.8939 -9.63215 0.605722 20.7285 12.1056 2.05887 0.544755 -0.00978877 -4.22106 16.1874 -0.904664 1.56609 35.1525 5.30987 6.16081 -10.5674 0.5703 -1.60223 1.85649 2.34116 -1.92507 2.85487 3.04946 4.31423 -0.0198314 3.31286 14.4315 9.02455 14.2584 -2.02126 -5.24041 -30.2843 2.65381 4.09805 -0.0949636 -3.64255 0.238413 -3.98105 -19.1061 -11.4566 1.32026 11.3023 -21.2055 36.9328 -6.77674 -0.050919 -0.00301477 -0.470845 -4.84973 -1.55016 2.09815 -3.92479 -2.98527 
-19.5112 38.1453 -23.9064 -6.99654 0.98083 -138.192 -10.3926 -17.82 -9.68732 -0.971863 23.4278 11.7223 2.82856 -1.08381 0.0267588 -5.81796 10.5982 -2.15285 0.61931 46.4941 4.31025 10.6704 3.0565 -0.285504 -2.32192 1.66608 1.81519 -2.85317 2.61687 2.4035 4.22711 -0.020956 3.10622 14.7975 7.48907 13.5374 -2.47361 -5.80396 -30.6651 2.87333 3.97414 -0.0997104 -3.27878 0.225151 -4.02206 -18.5833 -9.64256 1.14415 11.0251 -18.584 37.2456 -5.14561 0.0700527 0.00314776 -0.204745 -4.75837 -1.68576 2.23232 -3.92161 -2.97653 
-20.7801 38.1932 -25.0469 -7.38471 0.527576 -137.655 -10.7649 -16.5214 -9.35179 -2.40567 25.6887 11.6705 3.58617 -3.94826 0.123651 -6.37896 4.68324 -2.84909 -1.6143 56.4478 4.29595 10.6635 10.7926 -1.01019 -2.72862 1.61567 1.30856 -3.32604 2.5722 1.72908 4.18179 -0.0212987 2.98219 14.9634 5.21633 12.4954 -3.09959 -6.51856 -31.3735 3.46539 3.79765 -0.114922 -3.18829 0.222308 -4.0009 -18.117 -8.12199 0.904956 10.6294 -15.8364 37.5274 -3.49901 0.13289 0.00405901 -0.0367592 -4.78011 -1.66441 2.18466 -3.93996 -2.75495 
-21.9735 38.2865 -26.1483 -7.48784 0.568396 -137.149 -11.2156 -14.5502 -9.50835 -2.38181 27.2553 11.6651 3.5984 -7.2829 0.229081 -5.95773 -1.17487 -2.79019 -4.88518 64.2872 5.81493 8.22648 10.2881 -0.741831 -2.79959 1.72818 0.764741 -3.40552 2.75064 1.0043 4.22244 -0.0198243 2.9209 14.9909 2.25022 11.2157 -3.82954 -7.3189 -32.2646 4.30862 3.59489 -0.135275 -3.26826 0.224742 -4.02466 -17.71 -6.73627 0.579061 10.1727 -13.4675 37.7311 -2.25229 0.184544 0.00362766 0.10587 -4.92304 -1.54663 2.05253 -4.01385 -2.40232 
-23.1021 38.381 -27.2342 -7.40676 0.972244 -136.374 -11.5963 -12.0688 -9.92857 -1.48034 28.1739 11.4384 3.22368 -10.1529 0.286445 -4.75781 -6.80155 -2.14718 -8.50629 69.3999 7.86709 4.0782 4.74284 -0.168961 -2.65957 1.96099 0.140733 -3.24596 3.09258 0.175885 4.34005 -0.016388 2.84496 15.0488 -1.22015 9.82511 -4.59278 -8.15747 -33.1146 5.2092 3.4104 -0.155186 -3.31145 0.224418 -4.14955 -17.4774 -5.25779 0.117523 9.71846 -11.8255 37.7425 -1.67466 0.292119 0.00426938 0.305091 -5.08091 -1.4238 1.9359 -4.18588 -2.01844 
